PathFileType	4	(X/Y/Z)	4_coords_data.trc
DataRate	CameraRate	NumFrames	NumMarkers	Units	OrigDataRate	OrigDataStartFrame	OrigNumFrames
30.0	30.0	6	21	m	30.0	21	50
Frame#	Time	THUMB_TIP	THUMB_IP	THUMB_MCP	THUMB_CMC	INDEX_TIP	INDEX_DIP	INDEX_PIP	INDEX_MCP	MIDDLE_TIP	MIDDLE_DIP	MIDDLE_PIP	MIDDLE_MCP	RING_TIP	RING_DIP	RING_PIP	RING_MCP	PINKY_TIP	PINKY_DIP	PINKY_PIP	PINKY_MCP	WRIST
X1	Y1	Z1	X2	Y2	Z2	X3	Y3	Z3	X4	Y4	Z4	X5	Y5	Z5	X6	Y6	Z6	X7	Y7	Z7	X8	Y8	Z8	X9	Y9	Z9	X10	Y10	Z10	X11	Y11	Z11	X12	Y12	Z12	X13	Y13	Z13	X14	Y14	Z14	X15	Y15	Z15	X16	Y16	Z16	X17	Y17	Z17	X18	Y18	Z18	X19	Y19	Z19	X20	Y20	Z20	X21	Y21	Z21
19	0.6666666666666637	0.47110945821025885	-0.024909553752525238	-0.1716449421165145	0.4803357303195446	-0.028435091245061273	-0.15089773776618964	0.469305738179277	-0.028577890042705056	-0.12179208742318881	0.4734595948414466	-0.030077378043592007	-0.07740304586375268	0.5629607064756081	0.028181528604565464	-0.17758143348505703	0.5509240774606876	0.020698244080313954	-0.1663066822822022	0.5343596051007776	0.010882050158842693	-0.1501428205736302	0.5050349297488023	-0.0007578666544929558	-0.1215384180089919	0.5929452576918216	0.03785315760912622	-0.14537556130647178	0.5790497647619816	0.028680660637453337	-0.13824951222290416	0.5554649273671979	0.016805740022735383	-0.12591455152350306	0.5181688990302282	0.005019729042788468	-0.10432186441725033	0.6002978224066503	0.03785594269591841	-0.11372322502685894	0.5854576106154855	0.029405452360821926	-0.10794764478849206	0.5639975505226344	0.019448984261349556	-0.10016853540531617	0.5288468475124889	0.004305877994436047	-0.08713645021216643	0.6013156087771923	0.02175533948684727	-0.06634638919497715	0.5846768899801567	0.01780929095586503	-0.06558367182641606	0.564201064061549	0.013179844902206805	-0.06523610717466544	0.5305818648933385	0.00034816964616701807	-0.06768171720321059	0.4622830810018608	-0.023011742144276925	-0.051989820119430985
20	0.6999999999999968	0.4707262832585575	-0.024536710536826045	-0.17161712671895485	0.4800946159387117	-0.02819556368743492	-0.15095684752393346	0.4691824922398965	-0.028470381205393802	-0.12180774750843426	0.4733973994323303	-0.030084012487309297	-0.07742846460024394	0.5629483632191243	0.028002058377452954	-0.17766362562908034	0.5509264790345191	0.020513598344703676	-0.1663765858493218	0.5343737694789407	0.0107059834457357	-0.15019547558573945	0.5050408402301061	-0.0008344495516422468	-0.12155924395663176	0.5929429147826075	0.037788753198394476	-0.1454009119827288	0.5790644591711684	0.02858555429043841	-0.13828124909029418	0.5554938108655931	0.016675201208086854	-0.12595333045377635	0.5181971475148404	0.004914551553855451	-0.10434791577108538	0.6003027058722736	0.03781883967833677	-0.11371538232944328	0.5854764185175312	0.029333843410174754	-0.10795464959793388	0.5640334933318898	0.019330512213671103	-0.10018842120468852	0.5288810816511724	0.00418093084785498	-0.08716847606387113	0.6013420362502011	0.021650622232192496	-0.0661330141473796	0.584703818328058	0.01769015033562993	-0.0654370495420929	0.5642333629110338	0.013031914668138578	-0.06516628306385991	0.5306094144199636	0.00023557199278756435	-0.06772892876798248	0.4622830810018609	-0.023011742144276925	-0.051989820119430985
21	0.7333333333333302	0.4700857386231939	-0.024028501117387413	-0.17158600846300964	0.4796668787499231	-0.02784984236470034	-0.15105312983034908	0.4689973816796148	-0.02827189681789688	-0.12181610360836101	0.47333474585707724	-0.030082322160114083	-0.0774562159611597	0.5628246847881625	0.027947754221323118	-0.17779426555107192	0.5508421830362827	0.020436295578851738	-0.16648066131419675	0.5343339539064457	0.010598743790411924	-0.15027230609824205	0.5050397146717198	-0.0009125152133867553	-0.1215847729556711	0.5928346420677463	0.03789318387256324	-0.1454652776638636	0.579000046058979	0.028619176610363062	-0.1383521389350844	0.5554779540082475	0.016607760911304448	-0.1260295325362204	0.5182179533372187	0.004795740566059803	-0.10438891225032138	0.6002068971062933	0.037895166995187135	-0.11380335096535693	0.585424556262494	0.029329493286010422	-0.10804908010923076	0.5640323568835018	0.019217563882986788	-0.1002836008273244	0.5289010764336838	0.004040079267657148	-0.08723914113335185	0.6013266152460041	0.0216620302334094	-0.06602226381538162	0.5847021402410826	0.01763314464931487	-0.0653938437639705	0.5642454584993313	0.012911715827692904	-0.06518336573885747	0.5306234366114108	0.00012695578884369674	-0.06782779496219626	0.4622830810018608	-0.023011742144276925	-0.051989820119430985
22	0.7666666666666633	0.46957170161793493	-0.0236354957753957	-0.1715649986964541	0.47928774757579473	-0.027580846361625277	-0.15111915169280818	0.46881298467667654	-0.028121441495881472	-0.12181374094482389	0.4733035326753702	-0.030064393551500812	-0.07747470717117255	0.5626472779732691	0.02813638909866123	-0.17786916731260738	0.5506928806937544	0.02060068879987975	-0.16654196083040362	0.5342285983907324	0.010702777926527185	-0.15032565417353594	0.5050065743011513	-0.0008975171165008788	-0.12160035944880537	0.5926446823418892	0.03826404343381584	-0.14547627392683266	0.5788575097688536	0.028908864091362618	-0.1383773661297225	0.5553956918068039	0.016759674562995652	-0.12607493378000129	0.5181987334875179	0.004791450997975288	-0.10441169677601242	0.6000217064283484	0.03819660227065791	-0.11386997952991568	0.5853012556066757	0.029516787731685312	-0.10812810290499991	0.5639785362598689	0.0192573290925504	-0.1003650411965501	0.5288906127261421	0.004018580476453537	-0.08727538892054387	0.6012364399711696	0.021962403870032565	-0.06599666090062822	0.5846396401126853	0.01781500775074707	-0.06540900463447813	0.5642137400173242	0.012960622848987358	-0.0652370409176748	0.5306148561963776	0.0001152504245284236	-0.06788182148768085	0.4622830810018608	-0.023011742144276925	-0.051989820119430985
23	0.7999999999999965	0.4698907380135259	-0.023593276912432626	-0.17156988909374626	0.47949922104351295	-0.02752444982260749	-0.15107054926504054	0.46891239059500056	-0.02810275871864587	-0.12180615827743896	0.47334179764407647	-0.03005294877960296	-0.07746129260034235	0.5628512205288023	0.028319535377834715	-0.17760462204928884	0.5508254711966806	0.02083202978935972	-0.1663210670658836	0.5342811783864887	0.010953636173934855	-0.15017444054548115	0.5049846046606635	-0.0007451547378993784	-0.12156526101987292	0.5926667357537759	0.03856162280522557	-0.14524135469631239	0.578856058221392	0.029212313084724828	-0.1381805053248376	0.5553749702589447	0.01703216551597264	-0.12594563453258034	0.5181725624971626	0.004945394725097585	-0.10435770388661614	0.5999463280182078	0.03854018565463557	-0.11365943268268708	0.5852481710077313	0.02978561659915613	-0.10797421490777132	0.5639549403514065	0.019419679123502398	-0.10027190048498935	0.5288498308191782	0.004183035885937825	-0.08722595009487044	0.6011218941602446	0.022393542436645042	-0.06590725568806516	0.5845496982104501	0.01814550670277071	-0.0653446600914448	0.5641561990840632	0.013155869310185642	-0.0652006772015768	0.5305875600159227	0.0002291170962014366	-0.06783297644580422	0.462283081001861	-0.023011742144276925	-0.051989820119430985
24	0.8333333333333297	0.47115061294363403	-0.02410243267219392	-0.1716075924422213	0.4803137970785267	-0.027846973027928823	-0.15087080209187242	0.469237347218351	-0.028334308613438774	-0.1217865320731473	0.47343345115825175	-0.030090491708993916	-0.07741087959726323	0.5636171495878679	0.02811483385382585	-0.17698128445030584	0.5513759414198094	0.020822295788781697	-0.16580220974994975	0.5345557717149019	0.011145268995983892	-0.1498195042045926	0.5049488358384848	-0.0004854791618212895	-0.12150358749155923	0.5929770777525223	0.03845923853792255	-0.1448728217132805	0.5790504925179635	0.02925463840766107	-0.13784960591518897	0.5554331958550304	0.017260676959253485	-0.12569321923537663	0.518126411260085	0.005253928409918007	-0.10424118591777753	0.6001188098184069	0.038556097321118865	-0.11329724570220273	0.5853526359169671	0.029881193217924373	-0.10766642452649344	0.5639923932693464	0.019601334331396436	-0.10003461515336076	0.5287922497913631	0.004498495364012034	-0.08708953932296659	0.601098264095538	0.022563406844528622	-0.06585493117061514	0.5845189346459254	0.018348533637690845	-0.06525436572747811	0.5641212342397528	0.0133772678204368	-0.06507449545694105	0.5305544686878639	0.0004376949418396503	-0.06766740021878787	0.4622830810018609	-0.023011742144276925	-0.051989820119430985
